<svg width="100" height="100" viewBox="0 0 100 100" fill="none" xmlns="http://www.w3.org/2000/svg">
<path d="M50 100C77.6142 100 100 77.6142 100 50C100 22.3858 77.6142 0 50 0C22.3858 0 0 22.3858 0 50C9.66391e-07 77.6142 22.3858 100 50 100ZM50 93.0234C26.2389 93.0234 6.97656 73.7611 6.97656 50C6.97656 26.2389 26.2389 6.97656 50 6.97656C73.7611 6.97656 93.0234 26.2389 93.0234 50C93.0234 73.7611 73.7611 93.0234 50 93.0234ZM31.4375 40.6973C34.006 40.697 36.0877 38.6153 36.0879 36.0469C36.0879 33.4782 34.0061 31.3957 31.4375 31.3955H31.3955C28.8267 31.3955 26.7441 33.4781 26.7441 36.0469C26.7443 38.6155 28.8269 40.6973 31.3955 40.6973H31.4375ZM68.6045 40.6973C71.1731 40.6973 73.2557 38.6155 73.2559 36.0469C73.2559 33.4781 71.1733 31.3955 68.6045 31.3955H68.5625C65.9939 31.3957 63.9121 33.4782 63.9121 36.0469C63.9123 38.6153 65.994 40.697 68.5625 40.6973H68.6045ZM37.46 69.9014C38.1756 71.6899 40.2055 72.5601 41.9941 71.8447L65.25 62.542C67.0387 61.8265 67.9088 59.7965 67.1934 58.0078C66.4779 56.2191 64.4479 55.3491 62.6592 56.0645L39.4033 65.3672C37.6145 66.0827 36.7444 68.1126 37.46 69.9014Z" fill="url(#paint0_linear_289_3765)"/>
<defs>
<linearGradient id="paint0_linear_289_3765" x1="50" y1="100" x2="50" y2="0" gradientUnits="userSpaceOnUse">
<stop stop-color="#084CDD"/>
<stop offset="1" stop-color="#2673FF"/>
</linearGradient>
</defs>
</svg>
