<svg width="22" height="22" viewBox="0 0 22 22" fill="none" xmlns="http://www.w3.org/2000/svg">
<path d="M9.75037 1C10.1645 1.00015 10.5004 1.33588 10.5004 1.75C10.5004 2.16413 10.1645 2.49986 9.75037 2.5H6.75037C5.78647 2.5 5.13866 2.50149 4.65564 2.56641C4.19434 2.62843 3.9969 2.73596 3.86658 2.86621C3.73628 2.99652 3.62882 3.19391 3.56678 3.65527C3.50183 4.13831 3.50037 4.78599 3.50037 5.75V13H18.0463C18.1495 12.7093 18.4242 12.5 18.7504 12.5C19.1645 12.5001 19.5004 12.8359 19.5004 13.25V13.6494L19.9115 14.4082C20.6376 15.7475 21.127 16.8134 21.3529 17.6982C21.5849 18.6071 21.5575 19.3992 21.1635 20.1152C20.7227 20.9158 19.9344 21.228 19.0512 21.3662C18.1976 21.4997 17.0596 21.5 15.6635 21.5H5.83728C4.4409 21.5 3.30224 21.4998 2.44861 21.3662C1.56533 21.228 0.778026 20.9158 0.337283 20.1152C-0.056924 19.3992 -0.0851728 18.6072 0.146854 17.6982C0.37237 16.815 0.860432 15.751 1.58435 14.415L2.00037 13.6064V5.69824C2.00034 4.79976 2.00048 4.04986 2.08045 3.45508C2.16488 2.82748 2.35068 2.26102 2.80603 1.80567C3.26143 1.35034 3.82779 1.16449 4.45545 1.08008C5.05013 1.00013 5.79936 0.999972 6.69763 1H9.75037ZM2.91443 15.1084L2.90662 15.123C2.19013 16.4447 1.77837 17.3746 1.60096 18.0693C1.42972 18.7401 1.49657 19.1125 1.65076 19.3926C1.7585 19.5881 1.97264 19.774 2.68006 19.8848C3.40386 19.998 4.42392 20 5.90467 20H15.5951C17.0758 20 18.0959 19.998 18.8197 19.8848C19.5272 19.774 19.7412 19.5881 19.849 19.3926C20.0032 19.1125 20.0701 18.7401 19.8988 18.0693C19.7214 17.3746 19.3096 16.4447 18.5931 15.123L18.2553 14.5H3.22693L2.91443 15.1084ZM16.8021 9.50051e-07C17.7005 -2.84307e-05 18.4496 0.000145773 19.0443 0.0800791C19.6721 0.164484 20.2392 0.350195 20.6947 0.805665C21.15 1.26101 21.3359 1.82751 21.4203 2.45508C21.5003 3.04986 21.5004 3.79976 21.5004 4.69824V6.80176C21.5004 7.70022 21.5003 8.45015 21.4203 9.04492C21.3359 9.67249 21.15 10.239 20.6947 10.6943C20.2392 11.1498 19.6721 11.3355 19.0443 11.4199C18.4496 11.4999 17.7005 11.5 16.8021 11.5H16.6976C15.7994 11.5 15.0501 11.4999 14.4554 11.4199C13.8278 11.3355 13.2614 11.1497 12.806 10.6943C12.3507 10.239 12.1649 9.67252 12.0804 9.04492C12.0005 8.45014 12.0003 7.70024 12.0004 6.80176V4.69824C12.0003 3.79976 12.0005 3.04986 12.0804 2.45508C12.1649 1.82748 12.3507 1.26102 12.806 0.805665C13.2614 0.350341 13.8278 0.164488 14.4554 0.0800791C15.0501 0.000126658 15.7994 -2.84854e-05 16.6976 9.50051e-07H16.8021ZM16.7504 1.5C15.7865 1.5 15.1387 1.50149 14.6556 1.56641C14.1943 1.62843 13.9969 1.73596 13.8666 1.86621C13.7363 1.99652 13.6288 2.19391 13.5668 2.65527C13.5018 3.13831 13.5004 3.78599 13.5004 4.75V6.75C13.5004 7.71401 13.5018 8.36169 13.5668 8.84473C13.6288 9.30609 13.7363 9.50349 13.8666 9.63379C13.9969 9.76405 14.1943 9.87157 14.6556 9.93359C15.1387 9.99852 15.7865 10 16.7504 10C17.7142 10 18.3621 9.99853 18.8451 9.93359C19.3063 9.87155 19.5039 9.76407 19.6342 9.63379C19.7644 9.50348 19.8719 9.30599 19.934 8.84473C19.9989 8.36169 20.0004 7.71401 20.0004 6.75V4.75C20.0004 3.78599 19.9989 3.13831 19.934 2.65527C19.8719 2.19402 19.7644 1.99652 19.6342 1.86621C19.5039 1.73593 19.3063 1.62846 18.8451 1.56641C18.3621 1.50147 17.7142 1.5 16.7504 1.5ZM16.7592 6.75C17.3114 6.75004 17.7592 7.19774 17.7592 7.75C17.7592 8.30226 17.3114 8.74996 16.7592 8.75H16.7504C16.1981 8.75 15.7504 8.30229 15.7504 7.75C15.7504 7.19772 16.1981 6.75 16.7504 6.75H16.7592Z" fill="#101010"/>
</svg>
