<svg width="20" height="20" viewBox="0 0 20 20" fill="none" xmlns="http://www.w3.org/2000/svg">
<path d="M11.667 11.042C14.3084 11.0422 16.4578 13.1916 16.458 15.833C16.458 17.0996 15.4335 18.1248 14.167 18.125H5.83301C4.56649 18.1248 3.54199 17.0996 3.54199 15.833C3.54217 13.1916 5.6916 11.0422 8.33301 11.042H11.667ZM8.33301 12.292C6.38327 12.2922 4.79217 13.8833 4.79199 15.833C4.79199 16.4079 5.25816 16.8748 5.83301 16.875H14.167C14.7418 16.8748 15.208 16.4079 15.208 15.833C15.2078 13.8833 13.6167 12.2922 11.667 12.292H8.33301ZM10 1.875C12.1832 1.875 13.9578 3.64982 13.958 5.83301C13.958 8.01634 12.1833 9.79199 10 9.79199C7.81667 9.79199 6.04199 8.01634 6.04199 5.83301C6.04217 3.64982 7.81678 1.875 10 1.875ZM10 3.125C8.50844 3.125 7.29217 4.34149 7.29199 5.83301C7.29199 7.32467 8.50833 8.54199 10 8.54199C11.4917 8.54199 12.708 7.32467 12.708 5.83301C12.7078 4.34149 11.4916 3.125 10 3.125Z" fill="#161616"/>
</svg>
